<!-- Gastly SVG based on the Pokemon design -->
<svg width="120" height="120" viewBox="0 0 120 120" xmlns="http://www.w3.org/2000/svg">
  <!-- Background purple smoke/gas effect -->
  <defs>
    <radialGradient id="smokeGradient" cx="50%" cy="50%" r="50%">
      <stop offset="0%" style="stop-color:#9370db;stop-opacity:0.8"/>
      <stop offset="70%" style="stop-color:#8a2be2;stop-opacity:0.6"/>
      <stop offset="100%" style="stop-color:#6a0dad;stop-opacity:0.3"/>
    </radialGradient>
    <radialGradient id="bodyGradient" cx="50%" cy="40%" r="60%">
      <stop offset="0%" style="stop-color:#4a4a4a;stop-opacity:0.9"/>
      <stop offset="60%" style="stop-color:#2a2a2a;stop-opacity:0.95"/>
      <stop offset="100%" style="stop-color:#1a1a1a;stop-opacity:1"/>
    </radialGradient>
  </defs>
  
  <!-- Smoke clouds around Gastly -->
  <ellipse cx="30" cy="25" rx="15" ry="12" fill="url(#smokeGradient)" opacity="0.7"/>
  <ellipse cx="90" cy="30" rx="12" ry="10" fill="url(#smokeGradient)" opacity="0.6"/>
  <ellipse cx="20" cy="70" rx="10" ry="8" fill="url(#smokeGradient)" opacity="0.5"/>
  <ellipse cx="100" cy="75" rx="14" ry="11" fill="url(#smokeGradient)" opacity="0.6"/>
  <ellipse cx="60" cy="95" rx="18" ry="14" fill="url(#smokeGradient)" opacity="0.7"/>
  
  <!-- Main body (dark sphere) -->
  <circle cx="60" cy="60" r="35" fill="url(#bodyGradient)" stroke="#333" stroke-width="2"/>
  
  <!-- Eyes (white ovals) -->
  <ellipse cx="48" cy="50" rx="8" ry="12" fill="white"/>
  <ellipse cx="72" cy="50" rx="8" ry="12" fill="white"/>
  
  <!-- Eye pupils (small black dots) -->
  <circle cx="48" cy="52" r="3" fill="black"/>
  <circle cx="72" cy="52" r="3" fill="black"/>
  
  <!-- Mouth (curved line) -->
  <path d="M 45 70 Q 60 78 75 70" stroke="white" stroke-width="3" fill="none"/>
  
  <!-- Sharp teeth -->
  <polygon points="52,72 55,78 58,72" fill="white"/>
  <polygon points="62,72 65,78 68,72" fill="white"/>
  
  <!-- Additional smoke wisps for animation -->
  <ellipse cx="15" cy="45" rx="8" ry="6" fill="url(#smokeGradient)" opacity="0.4"/>
  <ellipse cx="105" cy="50" rx="6" ry="9" fill="url(#smokeGradient)" opacity="0.5"/>
</svg>
